<?xml version="1.0" encoding="utf-8"?>
<!-- Generator: Adobe Illustrator 18.1.1, SVG Export Plug-In . SVG Version: 6.00 Build 0)  -->
<svg version="1.1" id="Layer_1" xmlns="http://www.w3.org/2000/svg" xmlns:xlink="http://www.w3.org/1999/xlink" x="0px" y="0px"
	 viewBox="0 0 635.9 854.6" enable-background="new 0 0 635.9 854.6" xml:space="preserve">
<g>
	<path d="M642.3,738.2L642.3,738.2c0.1,0,0.2,0.1,0.3,0.1C642.5,738.3,642.4,738.2,642.3,738.2z"/>
</g>
<path d="M394.8,391.6"/>
<g>
	<path fill="#1F1F1F" d="M642.3,737.2L642.3,737.2c0.1,0,0.2,0.1,0.3,0.1C642.5,737.3,642.4,737.2,642.3,737.2z"/>
	<path fill="#1F1F1F" d="M556,617.4c0-0.1-0.1-0.1-0.1-0.2c-5-5.6-15.1-31.9-29.1-50.9c-9.9-13.4,10.8-36.7,11-51
		c0.2-1.2,7.7-14.9,9.6-20.6c0.4-1.3,3.7-1.7,5.6-2.5c0,0,0,0,0,0c0.1,1.5,0.2,3,0.3,4.6c0.1,1,7.2-0.7,6.6-7.6
		c-0.6-6.7-0.2-13.4-0.1-20.2c0-0.7,0.5-1.3,1.2-1.5l0,0c0.4-0.1,0.9,0,1.2,0.2c1.8,1.5,6.4-5.1,6.3-11.2c-0.1-8.9-1-17.7-1.7-26.6
		c-0.2-3.2,0.5-6.2,1-9.2c0.7-4.4-1.8-9.4-3.2-14.1c-0.9-3-2.3-5,0.4-8.5c2.2-2.8,1.4-7.8,2.1-13.2c2.8,3.8-13.5-60.7-14-62.2
		c-2-6-4.2-11.7-3.3-18.6c0.7-5.4-2.3-11.3-3.6-16.9c-1.3-5.6-2.6-11.1-3.4-16.9c0-0.2,0.3-0.4,0.4-0.2c1.8,2.4,1.9-4.6-1-12
		c-2.9-7.2-4.6-14.8-5.8-22.5c-2.2-14.4-7.1-27.4-13.1-40.3c-6.5-14-16.5-24.5-29-32.6c-9.3-6-19.4-11.5-29.9-14.8
		c-10.7-3.4-22.3-4-33.5-5.6c-7.4-1.1-12.2,4.4-17.7,7.8c-0.6,0.4-1.2,1.4-1.2,2.1c0.3,9-7.3,12.4-12.3,17.7
		c-4.9,5.1-9.9,10-15.5,15.6l-1.7-0.7c-0.8-0.3-1.7,0.1-2,1c-1.2,3.9-2.3,7.8-3.9,11.5c-0.9,2-2.7,4-4.5,5.2
		c-5.3,3.7-11,6.9-16.3,10.6c-3.6,2.6-2.9,7.8,1.6,10.4c4.4,2.5,7.1,4.7,3,9.8c-0.8,1-0.1,4.5,1.1,5.7c3.2,3.3,1.8,5.8-0.7,8.1
		c-5.6,5.3-5.7,7.3-1.3,13.9c0.9,1.4,0.9,4.1,0.2,5.8c-4.7,10.4-3.1,14.7,7.3,19.1c6,2.5,11.9,5.1,17.9,7.6
		c12.7,5.2,22.4,14.3,28.6,26.2c5.2,9.9,8,21.4,6.7,32.7c-0.6,5.6-1.2,12.2-6.8,16.5c-4.6,3.5-8.4,8-12.7,12c-1,0.9-2.3,3.1-4.1,5.9
		l0.7,0.6c-2.5,2.4-10.7,13.7-13.6,16.2c-0.2,0.2-12.6,18-17.8,22.6c-6.1,5.4-10.3,12.9-16.2,18.6c-6.7,6.5-10.5,14.4-13.2,22.9
		c-1.7,5.4-1.6,11.4-3,16.9c-1.9,7.6,0.7,14.7,1.3,22.1c0.6,7.4,15.3,35.4,18.8,34.6c0.3-0.1,1,0.6,0.8,0.4
		c-1.8-0.9-19.3,47.3-15.7,53.2c0.1,0.2-59.5,24-59.5,24c-0.4,0-3.9-34.8-4-35.2c-1.5-15.8-2.9-34-4.7-51.3
		c-3.7-34.6-7.1-69.5-11.6-103.9c-3-22.9-7.5-45.8-12-68.4c-3.2-16.1-9.5-31.2-17.8-45.4c-6.2-10.6-12.5-21.1-18.8-31.6
		c-0.6-1-6.3-11.5-7.2-13.4c-4-7.8-9-15.2-12.1-23.3c-1.6-4.3-3.3-7.2-6.9-9.9c-1.5-1.1-1.6-5.7-0.7-8.2
		c4.1-12.5,11.1-22.8,23.1-29.3c2.7-1.4,5-3.9,7-6.3c2.8-3.3,5.9-4,9.8-2.7c6.6,2.2,13.2,4.5,19.9,6.3c10.4,2.9,16.5,0.4,18.3-12.6
		c0.2-1.8,1-4.3,2.4-4.9c5.8-3,7.2-8.3,7.9-13.8c1.1-8.4,1.6-9.6,10.8-9.4c8,0.2,12.8-5.3,9.4-12.4c-3.6-7.5-3.6-14.6-2.2-22.1
		c0.3-0.4,2.1-2.7,2.7-4c0.1-0.2,0.2-0.5,0.3-0.7c0.1-0.2,0.2-0.5,0.2-0.7c1.5-8.1,2.6-16.2,3.9-24.3c0.2-1.4,0.6-2.8,0.8-3.9
		c0.1-0.3,0.3-0.5,0.5-0.6c2.7-1,5.1-1.8,7.7-2.8c0.2-0.1,0.5-0.1,0.7,0.1c0.5,0,0.9,0.1,1.4,0.1l1.9-0.6c0,0,0,0,0,0
		c-0.2-3.2-0.4-6.4-1-9.6c-0.7-4.1-0.4-6.9,4.3-8.2c1.3-0.4,2.1-2.4,3-4c0.2-0.4,0.1-0.9-0.4-1.1c-1.2-0.5-2.5-1.2-3.7-1.2
		c-4.7,0.2-7.5-1.7-8.9-7.3c-2.8-10.9-8.3-19.8-18.2-25.6c-1.1-0.6-2.5-0.7-3.5-1.3c-3-1.8-5.8-3.7-8.8-5.5c-1.6-0.9-3.5-2.4-5-2.1
		c-4.5,0.9-6.9-1.9-9.9-4.3c-2-1.6-4.8-3.6-7.1-3.5c-5,0.4-8-1-8.6-5.4c-0.1-0.4-0.4-0.7-0.7-0.7c-6-0.2-11.7-0.1-17.3-0.8
		c-2.5-0.3-4.4-2-7.5-2.3c-0.5,0-1,0-1.5-0.1c-2.4,0-5,0.2-7.8,0.6c-8.4,1.5-16.1,5.5-24.4,7.7c0,0,0,0,0,0
		c-0.4-0.2-8.3,7.9-12.9,13.1c-0.2,0.2-0.5,0.2-0.7,0.1c-2.8-1.1-25.7,20.6-22.6,22.2c0.1,0,0.1,0.1,0.1,0.2
		c-3.1,8-6.1,15.4-8.9,22.9c-0.5,1.4-1,2.9-0.9,4.3c0.6,12.7,1.3,25.5,2,38.2c0.3,5.1,1.1,10.3,1,15.4c-0.1,2.9-0.6,6.4-2.4,8.4
		c-4.8,5.4-11.2,27-17.1,26.3c-0.9-0.1-2,1-2.9,1.8c-8.5,6.9-17.4,12.7-27.9,16.8c-9.9,3.8-18.9,10.2-28.1,15.8
		c-17.5,10.5-30.4,25.5-40.8,42.9c-7.3,12.2-11.3,25.4-12.4,39.6c-0.8,9.9-3.2,19.7-4.1,29.6c-1.5,16.4-2.5,32.8-3.7,49.3
		c-0.2,2.6-0.3,5.5,0.4,8c3.3,10.9,4.3,48.1,4.2,52.3c-1,32.8-1.6,65.6-2.6,98.3c-0.4,13.5-2.3,75.5-3.1,89c-0.2,0.1-0.2,8.9-0.1,9
		c27.8,52.4-6.1,202.6,3.9,243.4c-0.1-1.7,236.5,1.8,237.8-0.4c11.9-20.8-6-97.3,5.3-108c4.4-4.3,22.1-0.9,24-9.1
		c3.2-14,10-17.7,33-15.4c4.2,0.4,11.3-38.8,15.3-39c14-0.7-26.3-31.5-24.3-33.5c7.3-7.1,29-0.4,29.5,1
		c11.4,29.1-11.2,203.7-9,205.8c0,0,320.3,2,321-1C640.4,836.5,560.7,628.8,556,617.4z M289.8,120.9
		C289.8,120.9,289.8,120.9,289.8,120.9C289.9,120.9,289.9,120.9,289.8,120.9C287,125.7,289.8,121,289.8,120.9z M397.9,387.6l0.9,0.8
		C398.2,388.1,397.8,387.8,397.9,387.6z"/>
</g>
</svg>
