<?xml version="1.0" encoding="utf-8"?>
<!-- Generator: Adobe Illustrator 18.1.1, SVG Export Plug-In . SVG Version: 6.00 Build 0)  -->
<svg version="1.1" id="Layer_1" xmlns="http://www.w3.org/2000/svg" xmlns:xlink="http://www.w3.org/1999/xlink" x="0px" y="0px"
	 viewBox="540.8 0.3 420.5 559.7" enable-background="new 540.8 0.3 420.5 559.7" xml:space="preserve">
<g>
	<path d="M961.1,482.2L961.1,482.2c0.1,0,0.1,0.1,0.2,0.1C961.3,482.3,961.2,482.2,961.1,482.2z"/>
</g>
<g>
	<path fill="#1F1F1F" d="M961.1,481.6L961.1,481.6c0.1,0,0.1,0.1,0.2,0.1C961.3,481.6,961.2,481.6,961.1,481.6z"/>
	<path fill="#1F1F1F" d="M904.8,403.4C904.8,403.3,904.7,403.3,904.8,403.4c-3.4-3.8-10-20.9-19.1-33.4c-6.5-8.8,7.1-23.9,7.2-33.3
		c0.1-0.8,5-9.8,6.3-13.5c0.3-0.9,2.4-1.1,3.7-1.6l0,0c0.1,1,0.1,2,0.2,3c0.1,0.7,4.7-0.5,4.3-5c-0.4-4.4-0.1-8.8-0.1-13.2
		c0-0.5,0.3-0.9,0.8-1l0,0c0.3-0.1,0.6,0,0.8,0.1c1.2,1,4.2-3.3,4.1-7.3c-0.1-5.8-0.7-11.6-1.1-17.3c-0.1-2.1,0.3-4.1,0.7-6
		c0.5-2.9-1.2-6.2-2.1-9.2c-0.6-2-1.5-3.3,0.3-5.6c1.4-1.8,0.9-5.1,1.4-8.6c1.8,2.5-8.8-39.7-9.2-40.7c-1.3-3.9-2.8-7.7-2.2-12.2
		c0.5-3.5-1.5-7.4-2.4-11.1c-0.9-3.7-1.7-7.3-2.2-11.1c0-0.1,0.2-0.3,0.3-0.1c1.2,1.6,1.2-3-0.7-7.9c-1.9-4.7-3-9.7-3.8-14.7
		c-1.4-9.4-4.7-17.9-8.6-26.3c-4.3-9.2-10.8-16.1-18.9-21.3c-6.1-3.9-12.7-7.5-19.5-9.7c-7-2.2-14.6-2.6-21.9-3.7
		c-4.8-0.7-8,2.9-11.6,5.1c-0.4,0.3-0.8,0.9-0.8,1.4c0.2,5.9-4.8,8.1-8.1,11.6c-3.2,3.3-6.5,6.6-10.2,10.2l-1.1-0.5
		c-0.5-0.2-1.1,0.1-1.3,0.7c-0.8,2.6-1.5,5.1-2.6,7.5c-0.6,1.3-1.8,2.6-2.9,3.4c-3.5,2.4-7.2,4.5-10.7,6.9c-2.4,1.7-1.9,5.1,1,6.8
		c2.9,1.6,4.7,3.1,2,6.4c-0.5,0.7-0.1,2.9,0.7,3.7c2.1,2.2,1.2,3.8-0.5,5.3c-3.7,3.5-3.7,4.8-0.9,9.1c0.6,0.9,0.6,2.7,0.1,3.8
		c-3.1,6.8-2,9.6,4.8,12.5c3.9,1.6,7.8,3.3,11.7,5c8.3,3.4,14.7,9.4,18.6,17.1c3.4,6.5,5.2,14,4.4,21.3c-0.4,3.7-0.8,8-4.5,10.8
		c-3,2.3-10.5,12.2-10.5,12.2c-1.6,1.6-7,9-8.9,10.6c-0.1,0.1-8.3,11.8-11.7,14.8c-4,3.5-6.7,8.5-10.6,12.2c-4.4,4.3-6.9,9.4-8.6,15
		c-1.1,3.5-1,7.5-2,11.1c-1.2,5,0.5,9.6,0.9,14.5c0.4,4.8,10,23.1,12.3,22.6c0.2-0.1,0.7,0.4,0.5,0.3c-1.2-0.6-12.6,30.9-10.3,34.8
		c0.1,0.1-38.9,15.7-38.9,15.7c-0.3,0-2.6-22.7-2.6-23c-1-10.4-1.9-22.2-3.1-33.5c-2.4-22.6-4.7-45.4-7.6-67.9
		c-2-15-4.9-29.9-7.9-44.7c-2.1-10.5-6.2-20.3-11.7-29.6c-4.1-6.9-8.2-13.8-12.3-20.6c-0.4-0.7-4.1-7.5-4.7-8.8
		c-2.6-5.1-5.9-10-7.9-15.3c-1-2.8-2.2-4.7-4.5-6.5c-1-0.7-1-3.7-0.5-5.4c2.7-8.2,7.3-14.9,15.1-19.1c1.8-0.9,3.3-2.6,4.6-4.1
		c1.8-2.2,3.9-2.6,6.4-1.8c4.3,1.4,8.6,2.9,13,4.1c6.8,1.9,10.8,0.3,12-8.3c0.1-1.2,0.7-2.8,1.6-3.2c3.8-2,4.7-5.4,5.2-9
		c0.7-5.5,1-6.3,7.1-6.2c5.2,0.1,8.4-3.5,6.2-8.1c-2.4-4.9-2.4-9.6-1.4-14.5c0.2-0.3,1.4-1.8,1.8-2.6c0.1-0.1,0.1-0.3,0.2-0.5
		c0.1-0.1,0.1-0.3,0.1-0.5c1-5.3,1.7-10.6,2.6-15.9c0.1-0.9,0.4-1.8,0.5-2.6c0.1-0.2,0.2-0.3,0.3-0.4c1.8-0.7,3.3-1.2,5-1.8
		c0.1-0.1,0.3-0.1,0.5,0.1c0.3,0,0.6,0.1,0.9,0.1l1.2-0.4l0,0c-0.1-2.1-0.3-4.2-0.7-6.3c-0.5-2.7-0.3-4.5,2.8-5.4
		c0.9-0.3,1.4-1.6,2-2.6c0.1-0.3,0.1-0.6-0.3-0.7c-0.8-0.3-1.6-0.8-2.4-0.8c-3.1,0.1-4.9-1.1-5.8-4.8c-1.8-7.1-5.4-13-11.9-16.7
		c-0.7-0.4-1.6-0.5-2.3-0.9c-2-1.2-3.8-2.4-5.8-3.6c-1-0.6-2.3-1.6-3.3-1.4c-2.9,0.6-4.5-1.2-6.5-2.8c-1.3-1-3.1-2.4-4.7-2.3
		c-3.3,0.3-5.2-0.7-5.6-3.5c-0.1-0.3-0.3-0.5-0.5-0.5c-3.9-0.1-7.7-0.1-11.3-0.5c-1.6-0.2-2.9-1.3-4.9-1.5c-0.3,0-0.7,0-1-0.1
		c-1.6,0-3.3,0.1-5.1,0.4c-5.5,1-10.5,3.6-16,5l0,0c-0.3-0.1-5.4,5.2-8.5,8.6c-0.1,0.1-0.3,0.1-0.5,0.1
		c-1.8-0.7-16.7,13.5-14.8,14.5c0.1,0,0.1,0.1,0.1,0.1c-2,5.2-4,10.1-5.8,15c-0.3,0.9-0.7,1.9-0.6,2.8c0.4,8.3,0.9,16.6,1.3,24.9
		c0.2,3.3,0.7,6.7,0.7,10.1c-0.1,1.9-0.4,4.2-1.6,5.5c-3.1,3.5-7.3,17.6-11.2,17.1c-0.6-0.1-1.3,0.7-1.9,1.2
		c-5.6,4.5-11.4,8.3-18.2,11c-6.5,2.5-12.4,6.7-18.3,10.4c-11.5,6.9-19.8,16.6-26.6,28c-4.8,8-7.4,16.5-8.1,25.8
		c-0.5,6.5-2.1,12.9-2.7,19.3c-1,10.7-1.6,21.4-2.4,32.2c-0.1,1.7-0.2,3.6,0.3,5.2c2.2,7.1,2.8,31.4,2.8,34.2
		c-0.7,21.4-1,42.9-1.7,64.2c-0.3,8.8-1.5,49.4-2,58.1c-0.1,0.1-0.1,5.8-0.1,5.9c18.1,34.2-4,132.4,2.6,159
		c-0.1-1.1,154.5,1.2,155.3-0.3c7.8-13.6-3.9-63.6,3.5-70.6c2.9-2.8,14.5-0.6,15.7-6c2.1-9.2,6.6-11.6,21.5-10.1
		c2.8,0.3,7.4-25.3,10-25.5c9.2-0.5-17.1-20.5-15.9-21.9c4.8-4.7,18.9-0.3,19.2,0.7c7.5,19-7.3,133.1-5.9,134.5
		c0,0,209.3,1.3,209.7-0.7C959.9,546.4,907.9,410.8,904.8,403.4z M730.9,79L730.9,79L730.9,79C729,82.2,730.9,79.1,730.9,79z"/>
</g>
</svg>
